<?xml version="1.0" encoding="UTF-8"?>
<svg id="Layer_1" data-name="Layer 1" xmlns="http://www.w3.org/2000/svg" width="400" height="258.83" xmlns:xlink="http://www.w3.org/1999/xlink" viewBox="0 0 400 258.83">
  <defs>
    <style>
      .cls-1 {
        mask: url(#mask);
      }

      .cls-2 {
        fill: url(#linear-gradient);
      }

      .cls-2, .cls-3, .cls-4, .cls-5 {
        stroke-width: 0px;
      }

      .cls-3 {
        fill: url(#linear-gradient-2);
      }

      .cls-5 {
        fill: #fff;
      }
    </style>
    <linearGradient id="linear-gradient" x1="-610.88" y1="-1041.29" x2="-641.39" y2="-1041.29" gradientTransform="translate(-920.9 40.49) rotate(134.53) scale(1.12 .88)" gradientUnits="userSpaceOnUse">
      <stop offset="0" stop-color="#000"/>
      <stop offset="1" stop-color="#000" stop-opacity="0"/>
    </linearGradient>
    <linearGradient id="linear-gradient-2" x1="-2270.03" y1="-1605.19" x2="-2300.55" y2="-1605.19" gradientTransform="translate(-609.97 -2724.59) rotate(-135.47) scale(1.12 .88)" xlink:href="#linear-gradient"/>
    <mask id="mask" x="192.63" y="44.53" width="170.95" height="168.99" maskUnits="userSpaceOnUse">
      <g id="xeqcy3oqbc">
        <path class="cls-5" d="m248.65,200.02l-7.27-7.27,63.66-63.66-63.24-63.24,7.27-7.27,70.52,70.52s-70.93,70.93-70.93,70.93Z"/>
        <path class="cls-5" d="m212.83,199.8l-7.27-7.27,63.44-63.44-63.23-63.23,7.27-7.27,70.51,70.51-70.72,70.72Z"/>
        <path class="cls-2" d="m242.74,175.72l-25.06,25.47-12.9-12.69,25.06-25.47s12.9,12.69,12.9,12.69Z"/>
        <path class="cls-4" d="m193.02,201.2l12.33-12.33,12.33,12.33-12.33,12.33-12.33-12.33Z"/>
        <path class="cls-3" d="m230.43,94.25l-25.47-25.06,12.68-12.9,25.47,25.06-12.69,12.9h0Z"/>
        <path class="cls-4" d="m204.96,44.53l12.33,12.33-12.33,12.33-12.33-12.33,12.33-12.33Z"/>
      </g>
    </mask>
  </defs>
  <path id="Black" class="cls-4" d="m126.08,116.98l13.67,44.63c.09.29.04.62-.14.87l-38.53,54.68c-1.08,1.53-2.84,2.48-4.71,2.51C29.2,220.7-1.27,170.01.04,126.79,1.37,82.92,34.02,39.21,92.84,39.21c38.69,0,65.79,28.76,74.5,43.13,6.27,9.41,13.07,33.55,15.69,44.44,22.22,79.73,57.51,90.19,90.19,90.19,41.82,0,84.96-33.98,84.96-90.19-1.31-50.98-50.93-84.96-84.96-84.96s-62.02,12.73-84.11,53.25c-.38.7-1.4.72-1.78.02l-22.32-40.92c-.19-.36-.15-.79.1-1.11C192.47,19.41,225.06,0,273.22,0c77.12,0,126.78,69.27,126.78,126.79,0,99.34-86.27,132.01-126.78,132.01-49.15,1.05-82.35-27.45-92.8-41.83-18.82-19.87-34.85-68.4-40.52-90.19-6.27-35.55-33.98-45.31-47.05-45.75-36.6-1.05-49.23,30.06-50.98,45.75-.97,33.78,22.5,46.4,37.08,49.17,2.12.4,4.2-.6,5.44-2.36l39.92-56.9c.48-.68,1.53-.51,1.78.28Z"/>
  <g id="Velocity">
    <g class="cls-1">
      <path class="cls-4" d="m198.98,46.93h164.6v164.6h-164.6V46.93Z"/>
    </g>
    <path class="cls-4" d="m285.04,199.68l-7.27-7.27,63.32-63.32-63.44-63.44,7.27-7.28,70.71,70.72-70.59,70.59Z"/>
  </g>
</svg>